<svg width="111" height="28" viewBox="0 0 111 28" fill="none" xmlns="http://www.w3.org/2000/svg">
<rect width="111" height="28" fill="#0A66C2"/>
<path d="M27.2866 5H10.4318C10.0265 5 9.69903 5.32175 9.69903 5.72V22.28C9.69903 22.6783 10.0265 23 10.4318 23H27.2866C27.6919 23 28.0194 22.6783 28.0194 22.28V5.72C28.0194 5.32175 27.6919 5 27.2866 5ZM25.1706 10.2538H23.7073C22.5599 10.2538 22.3378 10.7892 22.3378 11.5767V13.3115H25.0767L24.7195 16.0273H22.3378V23H19.4821V16.0295H17.0936V13.3115H19.4821V11.309C19.4821 8.98475 20.9271 7.718 23.0386 7.718C24.0508 7.718 24.9187 7.79225 25.1729 7.826V10.2538H25.1706Z" fill="#FFFCFC"/>
<path d="M46.3833 12.1357H43.0385V13.4883H46.1391V14.8945H43.0385V18H41.1733V10.7295H46.3833V12.1357ZM54.396 18H52.4575L51.9546 16.5303H49.2593L48.7563 18H46.8667L49.5522 10.7295H51.7104L54.396 18ZM51.5005 15.1973L50.6069 12.5898L49.7134 15.1973H51.5005ZM58.727 18.1416C58.1867 18.1416 57.687 18.0618 57.228 17.9023C56.7723 17.7428 56.38 17.5052 56.0512 17.1895C55.7225 16.8737 55.4669 16.4798 55.2846 16.0078C55.1056 15.5358 55.0161 14.9906 55.0161 14.3721C55.0161 13.7959 55.1023 13.2734 55.2749 12.8047C55.4474 12.3359 55.6981 11.9339 56.0268 11.5986C56.3426 11.2764 56.7332 11.0273 57.1987 10.8516C57.6675 10.6758 58.1785 10.5879 58.7319 10.5879C59.0379 10.5879 59.313 10.6058 59.5571 10.6416C59.8045 10.6742 60.0324 10.7181 60.2407 10.7734C60.4588 10.8353 60.6557 10.9053 60.8315 10.9834C61.0106 11.0583 61.1668 11.1283 61.3003 11.1934V12.9561H61.0854C60.9943 12.8779 60.8787 12.7852 60.7387 12.6777C60.602 12.5703 60.4458 12.4645 60.27 12.3604C60.091 12.2562 59.8973 12.1683 59.6889 12.0967C59.4806 12.0251 59.2576 11.9893 59.02 11.9893C58.7563 11.9893 58.5057 12.0316 58.268 12.1162C58.0304 12.1976 57.8107 12.3343 57.6089 12.5264C57.4168 12.7119 57.2606 12.9577 57.1401 13.2637C57.0229 13.5697 56.9643 13.9408 56.9643 14.377C56.9643 14.8327 57.0278 15.2135 57.1548 15.5195C57.285 15.8255 57.4477 16.0664 57.643 16.2422C57.8416 16.4212 58.063 16.5498 58.3071 16.6279C58.5512 16.7028 58.7921 16.7402 59.0298 16.7402C59.2576 16.7402 59.4822 16.7061 59.7036 16.6377C59.9282 16.5693 60.1349 16.4766 60.3237 16.3594C60.4832 16.265 60.6313 16.1641 60.768 16.0566C60.9048 15.9492 61.0171 15.8564 61.105 15.7783H61.3003V17.5166C61.118 17.598 60.9438 17.6745 60.7778 17.7461C60.6118 17.8177 60.4376 17.8796 60.2553 17.9316C60.0177 18 59.7947 18.0521 59.5864 18.0879C59.3781 18.1237 59.0916 18.1416 58.727 18.1416ZM67.936 18H62.6772V10.7295H67.936V12.1357H64.5425V13.3906H67.6919V14.7969H64.5425V16.5938H67.936V18ZM75.7339 15.7734C75.7339 16.125 75.6622 16.4391 75.519 16.7158C75.379 16.9925 75.1854 17.222 74.938 17.4043C74.6515 17.6191 74.3357 17.7721 73.9907 17.8633C73.6489 17.9544 73.2143 18 72.687 18H69.5132V10.7295H72.3354C72.9214 10.7295 73.3494 10.749 73.6196 10.7881C73.893 10.8271 74.1632 10.9134 74.4301 11.0469C74.7068 11.1868 74.9119 11.3757 75.0454 11.6133C75.1821 11.8477 75.2505 12.1162 75.2505 12.4189C75.2505 12.7705 75.1577 13.0814 74.9721 13.3516C74.7866 13.6185 74.5246 13.8268 74.186 13.9766V14.0156C74.6613 14.11 75.0372 14.3053 75.3139 14.6016C75.5939 14.8978 75.7339 15.2884 75.7339 15.7734ZM73.3315 12.7852C73.3315 12.6647 73.3006 12.5443 73.2387 12.4238C73.1801 12.3034 73.0744 12.2139 72.9214 12.1553C72.7846 12.1032 72.6137 12.0755 72.4087 12.0723C72.2068 12.0658 71.922 12.0625 71.5542 12.0625H71.3784V13.6006H71.6714C71.9676 13.6006 72.2199 13.5957 72.4282 13.5859C72.6365 13.5762 72.8009 13.5436 72.9214 13.4883C73.0906 13.4134 73.2013 13.3174 73.2534 13.2002C73.3055 13.0798 73.3315 12.9414 73.3315 12.7852ZM73.7905 15.7441C73.7905 15.513 73.7449 15.3356 73.6538 15.2119C73.5659 15.085 73.4145 14.9906 73.1997 14.9287C73.0532 14.8864 72.8514 14.8636 72.5942 14.8604C72.3371 14.8571 72.0685 14.8555 71.7885 14.8555H71.3784V16.667H71.5151C72.0425 16.667 72.4201 16.6654 72.6479 16.6621C72.8758 16.6589 73.0857 16.6165 73.2778 16.5352C73.4731 16.4538 73.6066 16.3464 73.6782 16.2129C73.7531 16.0762 73.7905 15.9199 73.7905 15.7441ZM84.2007 14.3672C84.2007 15.526 83.8686 16.4473 83.2046 17.1309C82.5405 17.8112 81.6225 18.1514 80.4507 18.1514C79.282 18.1514 78.3657 17.8112 77.7016 17.1309C77.0376 16.4473 76.7055 15.526 76.7055 14.3672C76.7055 13.1986 77.0376 12.2757 77.7016 11.5986C78.3657 10.9183 79.282 10.5781 80.4507 10.5781C81.616 10.5781 82.5324 10.9183 83.1997 11.5986C83.867 12.2757 84.2007 13.1986 84.2007 14.3672ZM81.7153 16.208C81.8976 15.9867 82.0327 15.7262 82.1206 15.4268C82.2085 15.124 82.2524 14.7692 82.2524 14.3623C82.2524 13.9261 82.202 13.555 82.101 13.249C82.0001 12.943 81.8683 12.6956 81.7055 12.5068C81.5395 12.3115 81.3475 12.1699 81.1294 12.082C80.9145 11.9941 80.6899 11.9502 80.4555 11.9502C80.2179 11.9502 79.9933 11.9925 79.7817 12.0771C79.5734 12.1618 79.3813 12.3018 79.2055 12.4971C79.0428 12.6794 78.9093 12.9316 78.8051 13.2539C78.7042 13.5729 78.6538 13.944 78.6538 14.3672C78.6538 14.8001 78.7026 15.1696 78.8003 15.4756C78.9012 15.7783 79.033 16.0257 79.1958 16.2178C79.3585 16.4098 79.549 16.5514 79.7671 16.6426C79.9852 16.7337 80.2147 16.7793 80.4555 16.7793C80.6964 16.7793 80.9259 16.7337 81.144 16.6426C81.3621 16.5482 81.5525 16.4033 81.7153 16.208ZM92.7065 14.3672C92.7065 15.526 92.3745 16.4473 91.7104 17.1309C91.0464 17.8112 90.1284 18.1514 88.9565 18.1514C87.7879 18.1514 86.8716 17.8112 86.2075 17.1309C85.5434 16.4473 85.2114 15.526 85.2114 14.3672C85.2114 13.1986 85.5434 12.2757 86.2075 11.5986C86.8716 10.9183 87.7879 10.5781 88.9565 10.5781C90.1219 10.5781 91.0382 10.9183 91.7055 11.5986C92.3729 12.2757 92.7065 13.1986 92.7065 14.3672ZM90.2212 16.208C90.4035 15.9867 90.5385 15.7262 90.6264 15.4268C90.7143 15.124 90.7583 14.7692 90.7583 14.3623C90.7583 13.9261 90.7078 13.555 90.6069 13.249C90.506 12.943 90.3742 12.6956 90.2114 12.5068C90.0454 12.3115 89.8533 12.1699 89.6352 12.082C89.4204 11.9941 89.1958 11.9502 88.9614 11.9502C88.7238 11.9502 88.4992 11.9925 88.2876 12.0771C88.0792 12.1618 87.8872 12.3018 87.7114 12.4971C87.5486 12.6794 87.4152 12.9316 87.311 13.2539C87.2101 13.5729 87.1596 13.944 87.1596 14.3672C87.1596 14.8001 87.2085 15.1696 87.3061 15.4756C87.407 15.7783 87.5389 16.0257 87.7016 16.2178C87.8644 16.4098 88.0548 16.5514 88.2729 16.6426C88.491 16.7337 88.7205 16.7793 88.9614 16.7793C89.2023 16.7793 89.4318 16.7337 89.6499 16.6426C89.868 16.5482 90.0584 16.4033 90.2212 16.208ZM100.929 18H98.6294L96.4565 15.0898L96.0171 15.6221V18H94.1421V10.7295H96.0171V14.0205L98.6147 10.7295H100.788L97.9458 14.0938L100.929 18Z" fill="white"/>
</svg>
