<svg width="111" height="28" viewBox="0 0 111 28" fill="none" xmlns="http://www.w3.org/2000/svg">
<path d="M111 0H0V28H111V0Z" fill="#0A66C2"/>
<path d="M47.6318 18H42.3877V10.7295H44.2627V16.5938H47.6318V18ZM52.6953 18H48.4375V16.7109H49.6289V12.0186H48.4375V10.7295H52.6953V12.0186H51.5039V16.7109H52.6953V18ZM60.835 18H59.0283L55.9424 13.0098V18H54.2236V10.7295H56.4648L59.1162 14.8945V10.7295H60.835V18ZM69.4775 18H67.1777L65.0049 15.0898L64.5654 15.6221V18H62.6904V10.7295H64.5654V14.0205L67.1631 10.7295H69.3359L66.4941 14.0938L69.4775 18ZM75.6641 18H70.4053V10.7295H75.6641V12.1357H72.2705V13.3906H75.4199V14.7969H72.2705V16.5938H75.6641V18ZM84.1113 14.3721C84.1113 15.0492 83.9567 15.6562 83.6475 16.1934C83.3382 16.7272 82.9476 17.1374 82.4756 17.4238C82.1208 17.6387 81.7318 17.7884 81.3086 17.873C80.8854 17.9577 80.3841 18 79.8047 18H77.2412V10.7295H79.8779C80.4704 10.7295 80.9814 10.7799 81.4111 10.8809C81.8408 10.9785 82.2021 11.1185 82.4951 11.3008C82.9964 11.6068 83.3903 12.0202 83.6768 12.541C83.9665 13.0586 84.1113 13.6689 84.1113 14.3721ZM82.1729 14.3574C82.1729 13.8789 82.085 13.4704 81.9092 13.1318C81.7367 12.79 81.4616 12.5231 81.084 12.3311C80.8919 12.2367 80.695 12.1732 80.4932 12.1406C80.2946 12.1048 79.9935 12.0869 79.5898 12.0869H79.1162V16.6377H79.5898C80.0358 16.6377 80.363 16.6182 80.5713 16.5791C80.7796 16.5368 80.9831 16.4619 81.1816 16.3545C81.5234 16.1592 81.7741 15.8988 81.9336 15.5732C82.0931 15.2445 82.1729 14.8392 82.1729 14.3574ZM89.4727 18H85.2148V16.7109H86.4062V12.0186H85.2148V10.7295H89.4727V12.0186H88.2812V16.7109H89.4727V18ZM97.6123 18H95.8057L92.7197 13.0098V18H91.001V10.7295H93.2422L95.8936 14.8945V10.7295H97.6123V18Z" fill="white"/>
<path d="M25.3353 20.339H22.6698V16.1623C22.6698 15.1663 22.6495 13.8845 21.2808 13.8845C19.891 13.8845 19.6788 14.9683 19.6788 16.0887V20.339H17.0132V11.75H19.5738V12.9207H19.6082C19.966 12.2457 20.836 11.5333 22.1357 11.5333C24.8365 11.5333 25.336 13.3108 25.336 15.6245V20.339H25.3353ZM14.0027 10.5747C13.1447 10.5747 12.4555 9.88025 12.4555 9.026C12.4555 8.1725 13.1455 7.47875 14.0027 7.47875C14.8577 7.47875 15.5507 8.1725 15.5507 9.026C15.5507 9.88025 14.857 10.5747 14.0027 10.5747ZM15.3393 20.339H12.6662V11.75H15.3393V20.339ZM26.6688 5H11.3283C10.594 5 10 5.5805 10 6.29675V21.7033C10 22.4202 10.594 23 11.3283 23H26.6665C27.4 23 28 22.4202 28 21.7033V6.29675C28 5.5805 27.4 5 26.6665 5H26.6688Z" fill="white"/>
</svg>
