<svg width="145" height="28" viewBox="0 0 145 28" fill="none" xmlns="http://www.w3.org/2000/svg">
<path d="M145 0H0V28H145V0Z" fill="black"/>
<path d="M48.498 17.5H46.6328V12.6318L45.2852 15.791H43.9912L42.6436 12.6318V17.5H40.876V10.2295H43.0537L44.6895 13.877L46.3203 10.2295H48.498V17.5ZM56.7549 10.2295L54.0742 14.6875V17.5H52.1992V14.7754L49.4746 10.2295H51.6035L53.1758 13.042L54.6943 10.2295H56.7549ZM67.1504 12.5244C67.1504 12.8499 67.0934 13.1689 66.9795 13.4814C66.8656 13.7907 66.7028 14.0511 66.4912 14.2627C66.2015 14.5492 65.8776 14.7656 65.5195 14.9121C65.1647 15.0586 64.722 15.1318 64.1914 15.1318H63.0244V17.5H61.1494V10.2295H64.2354C64.6976 10.2295 65.0866 10.2702 65.4023 10.3516C65.7214 10.4297 66.0029 10.5485 66.2471 10.708C66.54 10.9001 66.763 11.1458 66.916 11.4453C67.0723 11.7448 67.1504 12.1045 67.1504 12.5244ZM65.2119 12.5684C65.2119 12.3633 65.1566 12.1875 65.0459 12.041C64.9352 11.8913 64.8066 11.7871 64.6602 11.7285C64.4648 11.6504 64.2744 11.6081 64.0889 11.6016C63.9033 11.5918 63.6559 11.5869 63.3467 11.5869H63.0244V13.7646H63.5615C63.8805 13.7646 64.1426 13.7451 64.3477 13.7061C64.556 13.667 64.7301 13.5889 64.8701 13.4717C64.9906 13.3675 65.0768 13.2438 65.1289 13.1006C65.1842 12.9541 65.2119 12.7767 65.2119 12.5684ZM75.5537 13.8672C75.5537 15.026 75.2217 15.9473 74.5576 16.6309C73.8936 17.3112 72.9756 17.6514 71.8037 17.6514C70.6351 17.6514 69.7188 17.3112 69.0547 16.6309C68.3906 15.9473 68.0586 15.026 68.0586 13.8672C68.0586 12.6986 68.3906 11.7757 69.0547 11.0986C69.7188 10.4183 70.6351 10.0781 71.8037 10.0781C72.9691 10.0781 73.8854 10.4183 74.5527 11.0986C75.2201 11.7757 75.5537 12.6986 75.5537 13.8672ZM73.0684 15.708C73.2507 15.4867 73.3857 15.2262 73.4736 14.9268C73.5615 14.624 73.6055 14.2692 73.6055 13.8623C73.6055 13.4261 73.555 13.055 73.4541 12.749C73.3532 12.443 73.2214 12.1956 73.0586 12.0068C72.8926 11.8115 72.7005 11.6699 72.4824 11.582C72.2676 11.4941 72.043 11.4502 71.8086 11.4502C71.571 11.4502 71.3464 11.4925 71.1348 11.5771C70.9264 11.6618 70.7344 11.8018 70.5586 11.9971C70.3958 12.1794 70.2624 12.4316 70.1582 12.7539C70.0573 13.0729 70.0068 13.444 70.0068 13.8672C70.0068 14.3001 70.0557 14.6696 70.1533 14.9756C70.2542 15.2783 70.3861 15.5257 70.5488 15.7178C70.7116 15.9098 70.902 16.0514 71.1201 16.1426C71.3382 16.2337 71.5677 16.2793 71.8086 16.2793C72.0495 16.2793 72.279 16.2337 72.4971 16.1426C72.7152 16.0482 72.9056 15.9033 73.0684 15.708ZM81.0664 12.4561C81.0664 12.2738 81.029 12.1175 80.9541 11.9873C80.8792 11.8571 80.7507 11.7546 80.5684 11.6797C80.4414 11.6276 80.2933 11.5967 80.124 11.5869C79.9548 11.5739 79.7578 11.5674 79.5332 11.5674H78.8545V13.5254H79.4307C79.7301 13.5254 79.9808 13.5107 80.1826 13.4814C80.3844 13.4521 80.5537 13.3854 80.6904 13.2812C80.8206 13.1803 80.915 13.0697 80.9736 12.9492C81.0355 12.8255 81.0664 12.6611 81.0664 12.4561ZM83.9912 17.5H81.7012L79.7188 14.834H78.8545V17.5H76.9893V10.2295H80.1338C80.5635 10.2295 80.9329 10.2539 81.2422 10.3027C81.5514 10.3516 81.8411 10.4574 82.1113 10.6201C82.3848 10.7829 82.6012 10.9945 82.7607 11.2549C82.9235 11.512 83.0049 11.8359 83.0049 12.2266C83.0049 12.7637 82.8796 13.2015 82.6289 13.54C82.3815 13.8786 82.0267 14.1602 81.5645 14.3848L83.9912 17.5ZM90.5 11.6357H88.2295V17.5H86.3545V11.6357H84.084V10.2295H90.5V11.6357ZM96.8379 11.6357H93.4932V12.9883H96.5938V14.3945H93.4932V17.5H91.6279V10.2295H96.8379V11.6357ZM105.202 13.8672C105.202 15.026 104.87 15.9473 104.206 16.6309C103.542 17.3112 102.624 17.6514 101.452 17.6514C100.284 17.6514 99.3672 17.3112 98.7031 16.6309C98.0391 15.9473 97.707 15.026 97.707 13.8672C97.707 12.6986 98.0391 11.7757 98.7031 11.0986C99.3672 10.4183 100.284 10.0781 101.452 10.0781C102.618 10.0781 103.534 10.4183 104.201 11.0986C104.868 11.7757 105.202 12.6986 105.202 13.8672ZM102.717 15.708C102.899 15.4867 103.034 15.2262 103.122 14.9268C103.21 14.624 103.254 14.2692 103.254 13.8623C103.254 13.4261 103.203 13.055 103.103 12.749C103.002 12.443 102.87 12.1956 102.707 12.0068C102.541 11.8115 102.349 11.6699 102.131 11.582C101.916 11.4941 101.691 11.4502 101.457 11.4502C101.219 11.4502 100.995 11.4925 100.783 11.5771C100.575 11.6618 100.383 11.8018 100.207 11.9971C100.044 12.1794 99.9108 12.4316 99.8066 12.7539C99.7057 13.0729 99.6553 13.444 99.6553 13.8672C99.6553 14.3001 99.7041 14.6696 99.8018 14.9756C99.9027 15.2783 100.035 15.5257 100.197 15.7178C100.36 15.9098 100.55 16.0514 100.769 16.1426C100.987 16.2337 101.216 16.2793 101.457 16.2793C101.698 16.2793 101.927 16.2337 102.146 16.1426C102.364 16.0482 102.554 15.9033 102.717 15.708ZM111.882 17.5H106.638V10.2295H108.513V16.0938H111.882V17.5ZM116.945 17.5H112.688V16.2109H113.879V11.5186H112.688V10.2295H116.945V11.5186H115.754V16.2109H116.945V17.5ZM125.544 13.8672C125.544 15.026 125.212 15.9473 124.548 16.6309C123.884 17.3112 122.966 17.6514 121.794 17.6514C120.625 17.6514 119.709 17.3112 119.045 16.6309C118.381 15.9473 118.049 15.026 118.049 13.8672C118.049 12.6986 118.381 11.7757 119.045 11.0986C119.709 10.4183 120.625 10.0781 121.794 10.0781C122.959 10.0781 123.876 10.4183 124.543 11.0986C125.21 11.7757 125.544 12.6986 125.544 13.8672ZM123.059 15.708C123.241 15.4867 123.376 15.2262 123.464 14.9268C123.552 14.624 123.596 14.2692 123.596 13.8623C123.596 13.4261 123.545 13.055 123.444 12.749C123.343 12.443 123.212 12.1956 123.049 12.0068C122.883 11.8115 122.691 11.6699 122.473 11.582C122.258 11.4941 122.033 11.4502 121.799 11.4502C121.561 11.4502 121.337 11.4925 121.125 11.5771C120.917 11.6618 120.725 11.8018 120.549 11.9971C120.386 12.1794 120.253 12.4316 120.148 12.7539C120.048 13.0729 119.997 13.444 119.997 13.8672C119.997 14.3001 120.046 14.6696 120.144 14.9756C120.244 15.2783 120.376 15.5257 120.539 15.7178C120.702 15.9098 120.892 16.0514 121.11 16.1426C121.328 16.2337 121.558 16.2793 121.799 16.2793C122.04 16.2793 122.269 16.2337 122.487 16.1426C122.705 16.0482 122.896 15.9033 123.059 15.708Z" fill="white"/>
<g clip-path="url(#clip0_231_145)">
<path d="M33.881 10.948C33.108 6.863 29.022 6.355 29.022 6.355H10.723C10.119 6.355 10.044 7.153 10.044 7.153C10.044 7.153 9.962 14.477 10.022 18.975C10.186 21.399 12.608 21.647 12.608 21.647C12.608 21.647 20.875 21.624 24.574 21.598C27.012 21.172 27.257 19.032 27.232 17.864C31.584 18.104 34.654 15.033 33.881 10.948ZM22.819 14.459C21.573 15.912 18.808 18.435 18.808 18.435C18.808 18.435 18.687 18.554 18.498 18.458C18.422 18.401 18.39 18.368 18.39 18.368C17.947 17.927 15.022 15.319 14.356 14.414C13.647 13.449 13.315 11.714 14.265 10.704C15.216 9.694 17.27 9.618 18.628 11.111C18.628 11.111 20.193 9.329 22.096 10.148C24 10.968 23.928 13.159 22.819 14.459ZM28.992 14.937C28.064 15.053 27.31 14.965 27.31 14.965V9.284H29.08C29.08 9.284 31.051 9.835 31.051 11.922C31.051 13.835 30.066 14.589 28.992 14.937Z" fill="#E05D44"/>
</g>
<defs>
<clipPath id="clip0_231_145">
<rect width="24" height="24" fill="white" transform="translate(10 2)"/>
</clipPath>
</defs>
</svg>
